<svg xmlns="http://www.w3.org/2000/svg" viewBox="0 0 800 400">
  <defs>
    <linearGradient id="techGrad" x1="0%" y1="0%" x2="100%" y2="100%">
      <stop offset="0%" style="stop-color:#10B981;stop-opacity:1" />
      <stop offset="100%" style="stop-color:#059669;stop-opacity:1" />
    </linearGradient>
  </defs>
  <rect width="800" height="400" fill="url(#techGrad)"/>
  <g transform="translate(400, 200)">
    <!-- Terminal window -->
    <rect x="-80" y="-60" width="160" height="120" rx="8" fill="#1F2937" opacity="0.9"/>
    <rect x="-80" y="-60" width="160" height="24" rx="8" fill="#374151"/>
    <circle cx="-65" cy="-48" r="4" fill="#EF4444"/>
    <circle cx="-52" cy="-48" r="4" fill="#F59E0B"/>
    <circle cx="-39" cy="-48" r="4" fill="#10B981"/>
    <!-- Code lines -->
    <rect x="-65" y="-25" width="40" height="3" fill="#10B981"/>
    <rect x="-20" y="-25" width="30" height="3" fill="#3B82F6"/>
    <rect x="-65" y="-15" width="50" height="3" fill="#8B5CF6"/>
    <rect x="-10" y="-15" width="35" height="3" fill="#10B981"/>
    <rect x="-65" y="-5" width="45" height="3" fill="#3B82F6"/>
    <rect x="-15" y="-5" width="25" height="3" fill="#F59E0B"/>
    <rect x="-65" y="5" width="55" height="3" fill="#10B981"/>
    <rect x="-65" y="15" width="35" height="3" fill="#8B5CF6"/>
    <rect x="-25" y="15" width="40" height="3" fill="#3B82F6"/>
    <rect x="-65" y="25" width="45" height="3" fill="#F59E0B"/>
    <rect x="-65" y="35" width="60" height="3" fill="#10B981"/>
    <rect x="0" y="35" width="30" height="3" fill="#3B82F6"/>
  </g>
  <text x="400" y="340" font-family="system-ui" font-size="24" font-weight="600" fill="white" text-anchor="middle" opacity="0.8">Technology</text>
</svg>
